<svg xmlns:dc="http://purl.org/dc/elements/1.1/" xmlns:cc="http://creativecommons.org/ns#" xmlns:rdf="http://www.w3.org/1999/02/22-rdf-syntax-ns#" xmlns:svg="http://www.w3.org/2000/svg" xmlns="http://www.w3.org/2000/svg" xmlns:sodipodi="http://sodipodi.sourceforge.net/DTD/sodipodi-0.dtd" xmlns:inkscape="http://www.inkscape.org/namespaces/inkscape" viewBox="0 0 16.933333 21.166666250000002" version="1.1" x="0px" y="0px"><g><path d="M 10.318306,0.793764 C 9.9634729,0.795829 9.9640462,1.3219424 10.317777,1.32448 12.373892,1.33923 14.129465,2.797013 14.486516,4.8219408 14.843565,6.8468698 13.6974,8.8310648 11.765235,9.5343153 9.8687756,10.22457 7.758141,9.4804853 6.7086948,7.7690477 L 7.154662,7.889971 C 7.522825,7.9897978 7.6620227,7.478538 7.293672,7.3794079 L 6.2260368,7.0920869 C 6.0619781,7.0479356 5.9336105,7.1618906 5.902026,7.279671 L 5.612121,8.3607418 C 5.51927,8.7069891 6.0308264,8.8439208 6.123718,8.4976848 L 6.2487738,8.0315628 C 7.4237058,9.9677033 9.8093989,10.809842 11.946619,10.031958 14.116807,9.2420789 15.410009,7.0043249 15.008977,4.7299568 14.607945,2.455589 12.627721,0.78032686 10.318306,0.793764 Z m -5.29e-4,1.78697 c -1.640387,0 -2.9765633,1.336176 -2.9765633,2.9765627 0,1.640387 1.3361763,2.974495 2.9765633,2.974495 1.640388,0 2.976563,-1.334108 2.976563,-2.974495 0,-1.6403867 -1.336175,-2.9765618 -2.976563,-2.9765627 z m 0,0.5291669 c 1.354405,0 2.447397,1.0929919 2.447397,2.4473958 0,1.3544042 -1.092992,2.4473962 -2.447397,2.4473962 -1.3544042,0 -2.4473961,-1.092992 -2.4473961,-2.4473962 0,-1.3544039 1.0929919,-2.4473957 2.4473961,-2.4473958 z m -0.263562,0.47439 V 3.8070158 C 9.534826,3.923009 9.1400589,4.3833918 9.1400589,4.932012 c 0,0.384778 0.196465,0.6141058 0.434598,0.7296708 0.236951,0.11499 0.4875641,0.13282 0.7157191,0.1565801 0.228154,0.02376 0.431358,0.05336 0.536919,0.1049028 0.105557,0.05154 0.141077,0.1121133 0.141077,0.2532153 -6e-6,0.3398988 -0.281315,0.6136158 -0.640789,0.617016 C 10.006545,6.7809457 9.7793722,6.586886 9.6888619,6.283351 9.581719,5.9240368 9.0600918,6.096536 9.1850169,6.443548 9.3111722,6.7939772 9.5375308,7.1642219 10.054215,7.2946578 v 0.2278941 c 0,0.3607517 0.529166,0.3607517 0.529166,0 v -0.222726 c 0.517343,-0.1130052 0.91208,-0.5776122 0.91209,-1.1255132 0,-0.3808068 -0.194825,-0.6120388 -0.431498,-0.7276039 C 10.827317,5.3311418 10.573308,5.3118229 10.345153,5.2880628 10.116998,5.2643028 9.9127626,5.2357428 9.8072007,5.184193 9.701645,5.132653 9.6692248,5.0667489 9.6692248,4.932012 c 0,-0.3440261 0.2782088,-0.6167169 0.6387212,-0.6201172 0.316479,0.012271 0.535454,0.1854408 0.640789,0.520382 C 11.054723,5.1692941 11.56069,5.0111471 11.454647,4.674147 11.32443,4.2603222 11.029553,3.918379 10.583381,3.8137339 v -0.229443 c 0,-0.3552029 -0.529166,-0.3552029 -0.529166,0 z M 4.6101021,10.344602 C 4.3066872,10.489862 4.0556452,10.61834 3.8659623,10.720806 3.7287171,10.481371 3.4696273,10.31928 3.1765982,10.31928 h -1.588016 c -0.445392,0 -0.79530106,0.360139 -0.79530106,0.7953 v 3.702619 c 0,0.43516 0.35283206,0.7953 0.79530106,0.7953 h 1.588016 c 0.4351609,0 0.7927169,-0.35187 0.7927169,-0.7953 v -0.0455 c 0.5161071,-0.0836 1.0086361,-0.19598 1.5880159,-0.21808 0.3270883,0 0.9384821,0.46353 1.335836,0.74414 0.5662332,0.3997 1.1761552,0.84181 1.837614,0.84181 0.1991061,0 0.3991131,-0.0655 0.6624921,-0.16381 1.4474929,-0.54114 4.4956799,-2.276982 6.2792039,-3.30884 0.445155,-0.257545 0.597889,-0.825201 0.343648,-1.265558 -0.243937,-0.422512 -0.739903,-0.527667 -1.220597,-0.361219 l -3.702616,1.282092 C 11.028142,12.048075 10.857498,11.795947 10.592166,11.651474 9.5608825,11.089942 8.4848731,10.526428 7.4264681,10.09498 7.0935831,9.9685293 6.7027905,9.794768 6.3191435,9.7909785 5.9354965,9.787189 5.1903111,10.066826 4.6101021,10.344602 Z m 1.7068711,-0.02532 c 0.2563418,0.0041 0.6498828,0.160047 0.9120888,0.265616 1.0846131,0.460553 2.037951,0.941443 3.097485,1.525489 0.300226,0.165493 0.315453,0.514389 0.195337,0.722434 -0.141054,0.24432 -0.466672,0.342689 -0.7245029,0.19379 l -1.60352,-0.926042 c -0.328427,-0.18967 -0.5920226,0.267745 -0.2635501,0.457334 l 1.60352,0.925526 c 0.503838,0.290807 1.15452,0.11726 1.445391,-0.38654 0.03812,-0.066 0.07004,-0.13679 0.0925,-0.20671 l 3.897437,-1.350302 c 0.679383,-0.235378 0.804013,0.473951 0.447518,0.664043 -2.069484,1.192859 -4.763422,2.723609 -6.2089241,3.275769 -0.2407729,0.0898 -0.4354478,0.13281 -0.4769739,0.13281 -0.396876,0 -0.974994,-0.35215 -1.53324,-0.74621 -0.378637,-0.25481 -1.061725,-0.83227 -1.64021,-0.84181 -0.428072,0.001 -1.124984,0.12465 -1.5880159,0.20981 V 11.26961 c 0,0 0.442237,-0.245714 0.8671301,-0.446485 0.3424805,-0.167687 1.1529215,-0.503843 1.48053,-0.503843 z m -4.728394,0.529167 h 1.588016 c 0.151156,0 0.2635501,0.123246 0.2635501,0.266133 -2.01e-5,1.36735 0,3.439889 0,3.702619 0,0.14392 -0.1165291,0.26613 -0.2635501,0.26613 h -1.588016 c -0.141853,0 -0.265617,-0.11498 -0.265617,-0.26613 v -3.702619 c 0,-0.148263 0.116292,-0.266133 0.265617,-0.266133 z m 0.528649,3.175512 c -0.146125,0 -0.264583,0.11846 -0.264583,0.26459 0,0.14612 0.118458,0.26458 0.264583,0.26458 0.146125,0 0.264584,-0.11846 0.264584,-0.26458 0,-0.14613 -0.118459,-0.26459 -0.264584,-0.26459 z" style="opacity:1;fill:#000000;fill-opacity:1;stroke:none;stroke-width:0.52916664;stroke-linecap:round;stroke-linejoin:round;stroke-miterlimit:4;stroke-dasharray:none;stroke-dashoffset:0;stroke-opacity:1"/></g><text x="0" y="31.933333" fill="#000000" font-size="5px" font-weight="bold" font-family="'Helvetica Neue', Helvetica, Arial-Unicode, Arial, Sans-serif">Created by Aficons</text><text x="0" y="36.933333000000005" fill="#000000" font-size="5px" font-weight="bold" font-family="'Helvetica Neue', Helvetica, Arial-Unicode, Arial, Sans-serif">from the Noun Project</text></svg>